<svg width="70" height="70" viewBox="0 0 70 70" fill="none" xmlns="http://www.w3.org/2000/svg">
<rect x="70.0001" y="-0.00146484" width="70" height="70" rx="35" transform="rotate(90 70.0001 -0.00146484)" fill="#FE4388"/>
<path d="M34.5067 37.8714C33.8489 38.4936 33.1556 39.1247 32.4267 39.7647C31.7156 40.4225 31.0045 41.0358 30.2934 41.6047C29.6001 42.1736 28.9334 42.6803 28.2934 43.1247C27.6712 43.5692 27.1201 43.8981 26.6401 44.1114C26.089 44.0225 25.529 43.8181 24.9601 43.4981C24.3912 43.1958 23.8756 42.8047 23.4134 42.3247C22.969 41.8447 22.5956 41.2847 22.2934 40.6447C22.009 40.0225 21.8578 39.347 21.8401 38.6181C21.8045 37.8892 21.9378 37.1247 22.2401 36.3247C22.5423 35.5247 23.0667 34.707 23.8134 33.8714C24.2934 33.3203 24.8178 32.7514 25.3867 32.1647C25.9556 31.5781 26.5334 31.0003 27.1201 30.4314C27.7067 29.8803 28.2934 29.3381 28.8801 28.8047C29.4845 28.2892 30.0712 27.827 30.6401 27.4181C31.209 27.0092 31.8134 26.6714 32.4534 26.4047C33.1112 26.1381 33.7956 25.9958 34.5067 25.9781C35.2356 25.9603 35.9912 26.0847 36.7734 26.3514C37.5556 26.6358 38.3556 27.107 39.1734 27.7647C39.8134 28.2803 40.5423 28.9558 41.3601 29.7914C42.1956 30.6447 43.0401 31.5692 43.8934 32.5647C44.7467 33.5603 45.5823 34.5825 46.4001 35.6314C47.2356 36.6981 47.9823 37.7114 48.6401 38.6714C48.6401 39.2403 48.5067 39.7914 48.2401 40.3247C47.9734 40.8758 47.6089 41.3647 47.1467 41.7914C46.6845 42.2181 46.1334 42.5736 45.4934 42.8581C44.8534 43.1425 44.1601 43.3025 43.4134 43.3381C42.6667 43.3736 41.8756 43.267 41.0401 43.0181C40.2223 42.7692 39.3956 42.3336 38.5601 41.7114C38.1334 41.3914 37.5556 40.8847 36.8267 40.1914C36.0978 39.4981 35.3245 38.7247 34.5067 37.8714Z" fill="white"/>
</svg>
